<?xml version="1.0" standalone="no"?><!DOCTYPE svg PUBLIC "-//W3C//DTD SVG 1.1//EN" "http://www.w3.org/Graphics/SVG/1.1/DTD/svg11.dtd"><svg t="1662909818200" class="icon" viewBox="0 0 1024 1024" version="1.1" xmlns="http://www.w3.org/2000/svg" p-id="1224" xmlns:xlink="http://www.w3.org/1999/xlink" width="1024" height="1024"><rect height="100%" width="100%" fill="white"/><path d="M143.6517045 31.68957751c27.8468469-6.9244833 57.10837313-3.05272921 85.62533125-3.64838367 52.34313734 1.34022254 104.68627456-1.26576579 157.02941187 0.52119763 30.67620564-1.26576579 53.7578167 29.55935351 51.00291468 58.74642297 1.19130892 176.16481197-0.96793851 352.40408071 0.67011134 528.56889271-0.74456811 22.33704298 1.86142025 48.69475361-15.85930054 65.67090624-18.68865931 20.40116583-48.54583998 14.81690516-73.19104406 15.93375729-62.17143614-1.71250665-124.34287238 0.96793851-186.43985168-0.81902489-24.34737683 0.89348174-46.90779015-18.76311605-49.73714894-42.81266564-4.09512455-32.46316909-1.41467936-65.22416538-1.4891362-97.83624813 0.59565446-156.43375738-1.11685211-312.86751475 0.22337045-469.3012721-1.26576579-22.70932699 10.42395341-46.23767886 32.16534183-55.02358241m4.54186534 4.83969264c-24.27292 7.59459462-32.6120827 34.77133017-31.04848968 57.85294125-0.52119764 178.62188668 0.96793851 357.24377334-0.29782723 535.86566-2.30816107 25.16640171 9.67938525 56.81054586 38.19634344 59.56544787 64.47959728 3.64838367 129.25702178-0.59565446 193.88553267 1.56359299 22.93269747-1.41467936 51.15182836 4.83969266 68.64917862-13.9978802 14.96581881-13.84896661 13.4022258-35.73926865 14.22125074-54.27901436-1.11685211-151.44515107-0.22337045-302.89030224-0.37228403-454.33545336-0.29782722-32.38871225 2.08479068-64.92633812-1.86142029-97.09167992-2.90381554-20.7734499-22.63487015-38.0474298-43.78060418-37.07949135-47.1311606-1.86142025-94.26232117 0.74456811-141.39348178-0.2978272-32.01642822 0.44674086-64.40514047-3.12718604-96.19819828 2.23370428zM605.13501152 31.01946623c15.85930046-4.98860627 32.76099628-3.35055641 49.21595133-3.72284048 62.24589296 0.67011127 124.49178597-0.59565446 186.73767891 0.44674089 31.42077374-1.56359301 56.81054586 28.96369902 53.01324861 59.5654478-0.14891363 186.14202447 0.52119764 372.28404897-0.29782722 558.42607343 1.26576579 28.66587181-25.38977213 53.23661899-53.53444623 51.59856915-72.2975623 0.37228406-144.5951246 0.59565446-216.81823013-0.14891354-27.40010601 0.96793851-52.26868048-23.60280868-51.00291471-51.07737149-0.74456811-186.43985173-0.07445686-372.87970345-0.29782721-559.24509843-2.30816107-23.37943825 10.64732379-47.4289878 32.98436665-55.84260733m39.75993646 62.32034979c3.57392684 99.69766827-0.44674086 199.39533661-2.45707469 299.09300492-0.89348174 83.3171702-8.56253311 167.00662435-32.16534187 247.19660851 27.62347647-39.83439325 32.6120827-89.8693694 38.27080027-136.62824597 6.32882879-81.45574992 5.06306305-163.20932708 7.66905142-244.81399057-0.22337045-54.87466884 6.62665606-111.83412831-11.31743513-164.84737689m12.80657131 20.55007955c10.57286702 1.19130892 21.22019077 2.60598835 31.8675146 4.16958138-0.29782722 9.08373079-0.52119764 18.16746159-0.74456813 27.25119234-12.06200319 1.86142025-20.99682034 7.89242182-26.80445151 18.09300475 6.7755697 0.89348174 20.32670909 2.60598835 27.10227876 3.42501325-0.07445686 14.89136194 0.07445686 29.78272387 0.29782722 44.67408588-13.32776894 2.01033387-29.41043985 1.63804977-32.31425541 18.46528883 25.09194489 1.86142025 50.18388979 1.78696343 75.27583467-0.29782725-3.20164278-16.7527822-18.83757284-16.45495497-32.16534181-18.01854794 0.14891363-14.74244832 0.29782722-29.48489667 0.37228403-44.15288822 6.99894011-1.19130892 20.99682034-3.57392684 27.99576051-4.69077904-6.85002653-9.60492844-16.0826709-15.41255961-27.77239002-17.57180712-0.29782722-9.30710119-0.52119764-18.53974565-0.67011135-27.77239004 10.72178057-0.74456811 21.51801799-1.41467936 32.31425544-2.08479064-1.86142025-3.12718604-5.50980394-9.23264437-7.29676735-12.28537361-21.89030208-2.08479068-52.93879174-11.09406468-67.45786965 10.79623743m82.12586116-0.07445685c11.09406468 1.34022254 22.26258614 2.60598835 33.43110763 3.9462109-0.07445686 9.38155804-0.14891363 18.83757284-0.14891362 28.29358772-11.24297826 2.60598835-25.24085852 1.93587705-28.29358769 16.08267094 9.38155804 2.15924748 18.83757284 4.09512455 28.36804453 5.65871754v44.45071542c-11.24297826 1.71250665-38.34525703-1.71250665-27.02782197 18.09300478 22.78378378 1.93587705 45.71648121 1.04239535 68.57472179-0.14891362-1.93587705-16.60386854-16.82723904-17.42289345-30.08055116-18.68865923 0.07445686-14.37016425 0.22337045-28.66587181 0.29782726-42.96157924 5.73317438-1.56359301 17.19952308-4.83969266 22.85824064-6.40328565-2.82935879-10.2005829-10.34949651-16.00821406-22.63487022-17.5718071-0.29782722-9.00927401-0.59565446-18.01854793-0.81902488-27.0278219l29.55935349-2.97827248-8.41361955-11.98754632c-21.51801799-1.41467936-51.30074196-10.05166928-65.67090625 11.24297824m79.22204567 62.24589298c-4.3929518 116.59936412-5.36089033 233.79438273 6.03100156 350.0959197 4.91414942 37.52623213 7.37122418 76.16931638 21.74138844 111.68521464-2.30816107-49.51377852-8.78590355-98.80418659-10.05166932-148.46687873-6.99894011-130.22496032 0.59565446-260.9711183-7.74350819-391.12162184-8.2647059 25.01748812-8.63698995 51.67302598-9.97721249 77.80736623z" p-id="1225"></path><path d="M288.84248353 98.17950867c19.58214095 1.26576579 39.38765234 3.35055641 59.04425022 0.52119763-1.56359301 31.19740332 1.41467936 64.40514047-12.2109168 93.4432963-10.34949651 21.14573398-35.29252778 25.68759938-55.76815059 30.9740329 0.07445686 5.06306305 0.07445686 15.11473239 0.0744569 20.17779548 21.59247484 4.4674086 58.59750927-12.73211447 65.52199256 17.12506624-22.11367252 1.56359301-44.30180181 1.48913622-66.41547432 1.563593l-2.68044514 26.13434019c31.42077374 0.37228406 62.99046105-1.41467936 94.41123479 0.7445681 12.80657133-4.54186537 11.3174351 20.84790674 0.44674082 17.72072072-60.75675679 0.59565446-121.58797036 1.34022254-182.34472716-0.74456803 1.04239535 4.3929518 3.12718604 13.25331214 4.16958139 17.7207207l7.07339693-4.91414948c1.26576579 13.4022258 5.36089033 27.1022787 2.53153155 40.57896136-4.83969266 17.94409115-20.47562273 29.18706947-33.20773719 41.32352943 8.86036036-22.26258614 25.31531534-43.70614736 21.44356123-69.02146267 2.01033387-15.85930046-14.44462109-23.67726553-22.85824057-34.10121886 29.78272387-19.20985693 68.500265-4.16958135 102.00582935-7.52013777-1.41467936-9.45601485-2.75490198-18.91202967-4.09512453-28.29358773-19.9544251 0.22337045-39.98330687 0.96793851-59.86327509-0.74456818 0.52119764-4.02066772 1.63804977-11.9875464 2.15924749-16.00821404 19.06094331-2.45707473 38.4197139-1.48913622 57.62957079-1.63804983 0-4.98860627-0.07445686-14.89136194-0.1489136-19.87996822-17.79517755-5.80763116-38.56862749-10.05166928-49.21595131-27.17673562-19.06094331-28.59141497-14.66799154-64.70296771-16.67832534-97.24059353 29.63381034 2.38261794 59.26762057-2.82935879 88.97588762-0.74456809m-52.04530997 39.90885l4.76523582-3.87175409c4.83969266 15.48701643 9.82829895 31.04848971 11.83863274 47.2056174-11.91308955-11.68971913-18.76311605-27.02782195-25.91096976-41.77027022 1.56359301-5.88208798 4.61632224-17.64626394 6.10545834-23.52835194-32.6120827-5.43534711-18.83757284 23.45389511-18.76311604 38.86645467 1.86142025 26.65553789 26.43216746 41.32352944 50.10943296 46.3121357 0.89348174-27.54901961 1.48913622-55.09803925 2.68044517-82.6470588l-32.01642823-5.06306311c0.29782722 8.11579229 0.74456811 16.30604137 1.191309 24.49629039m38.56862742-21.74138839c2.97827238 28.14467415 4.3929518 56.363805 5.1375199 84.5829359 14.44462109-4.76523584 33.28219397-5.43534711 42.06809752-19.80551144 10.94515108-17.94409115 10.49841019-39.75993644 13.77450981-59.86327503-20.32670909-2.08479068-40.65341815-3.7228405-60.98012723-4.91414943z" p-id="1226"></path><path d="M287.57671776 180.60319713c0.96793851-22.41149973 18.16746159-37.60068894 33.13328039-51.82193964 3.7228405 23.23052462-15.78484372 40.28113409-33.13328039 51.82193964zM247.66786773 382.00886758c-11.76417598-20.47562273-12.58320086-48.17355594 0.0744568-68.4258082 3.87175412 22.63487015 3.94621091 45.79093802-0.0744568 68.4258082zM301.42568444 382.00886758c-12.21091679-20.69899314-12.50874403-47.20561737 0.14891358-67.75569692 4.91414942 22.26258614 5.06306305 45.49311078-0.14891358 67.75569692zM342.45138661 312.8384913c10.34949651 27.99576051 20.5500795 55.99152098 36.11155276 81.75357717-33.20773717-12.06200319-42.14255431-50.2583466-36.11155276-81.75357717zM273.05763985 373.14850723c3.94621091 16.0826709 5.73317438 32.53762589 7.81796506 48.918124 22.93269747 0.14891363 46.01430843-1.11685211 68.94700587 0.81902494 2.60598835 6.17991521 5.06306305 12.43428722 7.22231059 18.83757293-25.24085852 1.86142025-50.48171705 1.63804977-75.64811875 1.63804973 0.37228406 57.40620035 1.78696343 115.03577115-2.68044521 172.36751471 32.09088499 0.59565446 64.47959728-2.23370432 96.49602546 1.71250663 1.11685211 4.24403818 3.49947004 12.73211447 4.69077912 16.90169581-70.28722839 1.56359301-140.6489137 1.56359301-210.86168541 0 3.27609965-7.29676734 3.79729731-20.69899314 15.48701648-18.1674616 29.18706947-1.56359301 58.3741389-0.14891363 87.56120828-0.44674084-6.70111286-57.25728672-4.54186537-114.9613144-4.91414943-172.44197153-23.081611-0.07445686-46.16322209 0-69.24483311-0.22337038 0.07445686-5.13751988 0.14891363-15.33810279 0.14891364-20.40116594 23.081611-0.74456811 46.16322209-0.59565446 69.24483312-0.6701112 1.34022254-16.30604137 2.97827238-32.6865395 5.73317429-48.84366726zM95.62706215 816.68772312h833.91626963v14.89136201H95.62706215v-14.89136201zM102.84937275 929.7131604c24.04954954 10.05166928 23.15606787 41.10015901 33.80339159 61.50132488 10.87069424-18.31637522 6.55219924-53.31107585 30.75066249-59.93773189 3.20164278 23.67726553 2.08479068 47.65235824 1.935877 71.55299427h-8.93481716c-0.07445686-18.68865931 0-37.30286171-0.37228402-55.91706415-7.44568102 20.25225226-13.92342342 40.87678854-22.18812937 60.83121357-13.17885536-17.72072073-17.86963435-39.68547962-24.79411763-60.16110235-0.59565446 18.39083197-1.56359301 36.85612089-1.48913617 55.32140968l-9.00927402-0.07445675c-0.07445686-24.42183358-0.22337045-48.76921042 0.29782729-73.11658726zM315.27465104 933.51045774c18.39083197-6.62665606 41.24907261 4.61632224 44.00397463 24.71966086 6.17991521 21.07127713-8.4880763 47.80127185-32.53762594 45.71648115-38.27080025 2.68044513-45.86539484-59.86327513-11.46634869-70.43614201m-2.38261788 11.16852144c-17.49735028 13.99788022-11.68971913 51.44965554 13.84896657 51.82193959 19.20985693 0.14891363 28.59141497-22.4859566 22.56041338-38.56862742-2.82935879-16.00821406-24.12400635-23.90063593-36.40937995-13.25331217zM490.69489489 932.46806239c14.5190779 1.34022254 29.78272387-0.14891363 43.5572338 5.50980388 19.20985693 13.77450983 18.09300477 48.84366722-1.9358771 61.57578172-13.47668257 4.3929518-27.99576051 2.97827238-41.99364074 4.09512453-0.07445686-23.75172229-0.14891363-47.4289878 0.37228404-71.18071013m9.38155807 6.55219921c-0.37228406 19.4332274-0.37228406 38.94091152 0.0744568 58.44859575 10.72178057-3.79729731 25.09194489-1.34022254 33.35665076-10.64732385 5.95654478-10.87069424 6.0310016-24.19846317 1.41467942-35.59035501-7.37122418-11.61526233-23.52835188-8.4880763-34.84578698-12.21091689zM694.63209695 933.58491455c24.49629044-9.67938525 49.81160571 13.47668257 45.41865397 38.64308424-0.22337045 20.99682034-21.74138845 36.85612089-41.91918392 30.75066243-32.16534185-6.10545842-33.80339163-59.63990466-3.49947005-69.39374667m-2.23370432 11.24297826c-17.19952308 13.99788022-11.39189198 51.37519873 13.99788028 51.52411235 19.20985693 0.44674086 28.74032858-22.33704298 22.63487014-38.34525705-2.75490198-16.15712778-24.42183358-24.12400635-36.63275042-13.1788553zM870.49908166 930.15990124c2.23370432 2.01033387 6.70111286 5.95654478 8.93481716 7.9668787 2.82935879 19.20985693-9.90275569 58.07631162 19.80551146 58.22522522 28.51695818-7.29676734 10.34949651-47.4289878 18.68865927-68.20243778 10.64732379 16.7527822 7.81796501 37.45177532 5.58426068 56.14043461-3.12718604 24.12400635-44.0039746 26.80445153-51.44965555 4.39295179-3.79729731-19.28431373-1.71250665-39.08982512-1.56359302-58.52305254z" p-id="1227"></path></svg>
